<?xml version="1.0" encoding="UTF-8"?>
<svg width="38px" height="26px" viewBox="0 0 38 26" version="1.1" xmlns="http://www.w3.org/2000/svg" xmlns:xlink="http://www.w3.org/1999/xlink">
    <!-- Generator: Sketch 53.2 (72643) - https://sketchapp.com -->
    <title>baseline-visibility-24px</title>
    <desc>Created with Sketch.</desc>
    <defs>
        <linearGradient x1="8.59285907%" y1="50%" x2="93.4186493%" y2="50%" id="linearGradient-1">
            <stop stop-color="#FF8A50" offset="0%"></stop>
            <stop stop-color="#14CBA8" offset="51.0649669%"></stop>
            <stop stop-color="#022F6C" offset="100%"></stop>
        </linearGradient>
    </defs>
    <g id="Page-1" stroke="none" stroke-width="1" fill="none" fill-rule="evenodd">
        <g id="baseline-visibility-24px" transform="translate(-1.000000, -7.000000)">
            <polygon id="Path" points="0 0 40 0 40 40 0 40"></polygon>
            <path d="M20,7.5 C11.6666667,7.5 4.55,12.6833333 1.66666667,20 C4.55,27.3166667 11.6666667,32.5 20,32.5 C28.3333333,32.5 35.45,27.3166667 38.3333333,20 C35.45,12.6833333 28.3333333,7.5 20,7.5 Z M20,28.3333333 C15.4,28.3333333 11.6666667,24.6 11.6666667,20 C11.6666667,15.4 15.4,11.6666667 20,11.6666667 C24.6,11.6666667 28.3333333,15.4 28.3333333,20 C28.3333333,24.6 24.6,28.3333333 20,28.3333333 Z M20,15 C17.2333333,15 15,17.2333333 15,20 C15,22.7666667 17.2333333,25 20,25 C22.7666667,25 25,22.7666667 25,20 C25,17.2333333 22.7666667,15 20,15 Z" id="Shape" fill="url(#linearGradient-1)" fill-rule="nonzero"></path>
        </g>
    </g>
</svg>